# xmcd
#
# Track frame offsets:
# 187
# 12447
# 24057
# 38257
# 52570
# 64612
# 76717
# 91035
# 101615
# 114912
# 125490
# 139707
# 150002
# 168347
# 180972
# 199387
# 212397
# 224407
#
# Disc length: 3172 seconds
#
#
# Revision: 0
# Processed by: cddbd v1.5.2PL0 Copyright (c) Steve Scherf et al.
# Submitted via: FreeRIP 2.944 
#
DISCID=c50c6212
DTITLE=Various Artist - Chess History Sampler 1993
DYEAR=1993
DGENRE=R&B
TTITLE0=(Muddy Waters)-I Can't Be Satisfied
TTITLE1=(John Lee Hooker)-Wallkin' The Boogie
TTITLE2=(Forest Sykes)-Tonky Boogie
TTITLE3=(Lowell Fulson)-Reconsider Baby
TTITLE4=(Little Walter)-My Babe
TTITLE5=(Chuck Berry)-Johnny B. Goode
TTITLE6=(The Moonglows)-Sincerely
TTITLE7=(Clarent "Frogman" Henry)-Ain't Got No Home
TTITLE8=(Bo Diddley)-I'm A Man
TTITLE9=(Buddy Guy)-First Time I Met The Blues
TTITLE10=(Sonny Boy Williamson)-Help Me
TTITLE11=(Detroit Junior)-Too Poor
TTITLE12=(Howlin' Wolf)-Goin' Down Slow
TTITLE13=(Etta James)-Something's Got A Hold On Me
TTITLE14=(Fontella Bass)-Rescue Me
TTITLE15=(The Dells)-Oh What A Night
TTITLE16=(Little Milton)-We're Gonna Make It
TTITLE17=(KoKo Taylor)-Wang Dang Doodle
EXTD=MCA  CH3P-2789 - Year: 1993
EXTT0=1948
EXTT1=1952
EXTT2=1948
EXTT3=1954
EXTT4=1955
EXTT5=1957
EXTT6=1955
EXTT7=1956
EXTT8=1955
EXTT9=1960
EXTT10=1963
EXTT11=1960
EXTT12=1961
EXTT13=1961
EXTT14=1965
EXTT15=1969
EXTT16=1965
EXTT17=1965
PLAYORDER=
